# xmcd
#
# Track frame offsets:
#	183
#	15698
#	33293
#	47813
#	62100
#	80510
#	94285
#	108878
#	122350
#	138198
#	152810
#	169260
#
# Disc length: 2500 seconds
#
# Revision: 0
# Processed by: cddbd v1.5.2PL0 Copyright (c) Steve Scherf et al.
# Submitted via: EZCDAudioConverter 8.2.2.1
#
DISCID=9409c20c
DTITLE=CHICO REY and PARANÁ - VOL.08 - OUTROS CAMINHOS SEM VOCÊ [CD 2.07.800.380
DTITLE=) GEL CHANTECLER
DYEAR=1993
DGENRE=SERTANEJO
TTITLE0=VOCÊ ME ENGANOU (BY GILMAR SINISTRO)
TTITLE1=SINAL DE VIDA (BY GILMAR SINISTRO)
TTITLE2=OUTROS CAMINHOS SEM VOCÊ (BY GILMAR SINISTRO)
TTITLE3=ESSE ESTRANHO JEITO DE AMAR (BY GILMAR SINISTRO)
TTITLE4=MINHA VIDA EM SUAS MÃOS (BY GILMAR SINISTRO)
TTITLE5=O ARCO-ÍRIS (BY GILMAR SINISTRO)
TTITLE6=LEÃO DOMADO (BY GILMAR SINISTRO)
TTITLE7=A SERPENTE E A MAÇÃ (BY GILMAR SINISTRO)
TTITLE8=SÓ DEUS ENDOSSA (BY GILMAR SINISTRO)
TTITLE9=PARE COM ISSO (BY GILMAR SINISTRO)
TTITLE10=HAJA SAUDADE (BY GILMAR SINISTRO)
TTITLE11=VOLTA PRA MIM (BY GILMAR SINISTRO)
EXTD=
EXTT0=
EXTT1=
EXTT2=
EXTT3=
EXTT4=
EXTT5=
EXTT6=
EXTT7=
EXTT8=
EXTT9=
EXTT10=
EXTT11=
PLAYORDER=
